# xmcd
# Copyright (C) 1995-1998 Ti Kan
#
# Track frame offsets:
#       150
#       15566
#       30298
#       47900
#       64219
#
# Disc length: 1069 seconds
#
# Revision: 4
# Processed by: cddbd v1.5.2PL0 Copyright (c) Steve Scherf et al.
# Submitted via: CD-Transfer v1.0
#
DISCID=36042b05
DTITLE=Gerrit Winter - 
DYEAR=10
DGENRE=
TTITLE0=Zurück In Richtung Sommer Wind (10)
TTITLE1=Alles Liebe Meine Süße (10)
TTITLE2=Gäb Es Venedig Nicht (10)
TTITLE3=Dein Herz Mein Herz (10)
TTITLE4=Atemlos (10)
EXTD=
EXTT0=
EXTT1=
EXTT2=
EXTT3=
EXTT4=
PLAYORDER=
